<svg id="Calque_1" data-name="Calque 1" xmlns="http://www.w3.org/2000/svg" viewBox="0 0 218.89 79.65"><defs><style>.cls-1{fill:#fff;}.cls-2{fill:#e30613;}</style></defs><title>footer_logo</title><path class="cls-1" d="M327.51,204.89a3.81,3.81,0,1,1-3.78-3.71A3.73,3.73,0,0,1,327.51,204.89Zm-6.67,0a2.88,2.88,0,0,0,2.88,3,2.84,2.84,0,0,0,2.83-2.94,2.86,2.86,0,1,0-5.71,0Zm2.29,1.92h-.87v-3.7a10.23,10.23,0,0,1,1.42-.11,2,2,0,0,1,1.27.29.94.94,0,0,1,.38.79,1,1,0,0,1-.76.88v0c.36.11.54.41.66.9a3.13,3.13,0,0,0,.27.91h-.9a3.14,3.14,0,0,1-.3-.91c-.07-.38-.3-.56-.77-.56h-.4Zm0-2.08h.41c.47,0,.86-.16.86-.55s-.25-.56-.8-.56a2.26,2.26,0,0,0-.48,0Z" transform="translate(-108.62 -201.18)"/><path class="cls-2" d="M217.3,231.26l35.46-24.17h-19.7l-24,16.34L191.9,207.09h-16.1l23.9,22.74L173.11,248a3.37,3.37,0,0,1-1.43.43H120.1l3.28-9.09h37.1l14.83-10.17H127.06l2.87-7.94a5.14,5.14,0,0,1,3.87-3h37l-11.69-11.09H133.8c-6,0-12.15,4.43-14.29,10.31l-10.12,28a10.69,10.69,0,0,0,1,9.93,9.94,9.94,0,0,0,7.42,4.12h54.65a14.7,14.7,0,0,0,6.3-1.92l29.16-19.87,22.91,21.79H246.9Z" transform="translate(-108.62 -201.18)"/><path class="cls-1" d="M297.55,230.52l-34.53,0,61.58,39.71-28.68-28.63h1.63c5.94,0,12.16-4.36,14.46-10.15l4-10.12a10.61,10.61,0,0,0-.74-10,9.93,9.93,0,0,0-8.41-4.21H265.34c-5.93,0-12.15,4.36-14.51,10.27l-10.7,28.39,8.74,8.34,12.31-32.75a5.65,5.65,0,0,1,4.16-3.16h40l-3.65,9.16a5.65,5.65,0,0,1-4.16,3.16" transform="translate(-108.62 -201.18)"/><path class="cls-1" d="M137.5,280.83h-9.59V268.06h9.59v2.36h-6.61v2.74H136v2.25h-5.15v3.08h6.61Z" transform="translate(-108.62 -201.18)"/><path class="cls-1" d="M146.22,276.54H146l-2.79,4.29H140.1l4.31-6.48-4.2-6.29h3.36l2.66,4h.16l2.64-4h3.18L148,274.34l4.32,6.5H149Z" transform="translate(-108.62 -201.18)"/><path class="cls-1" d="M162.39,268.06a3,3,0,0,1,2.29.63c.73.67,1.26,1.84,1.26,5.76s-.53,5.08-1.26,5.77a3,3,0,0,1-2.29.62h-4a3,3,0,0,1-2.29-.62c-.73-.69-1.26-1.86-1.26-5.77s.53-5.09,1.26-5.76a3,3,0,0,1,2.29-.62Zm-4.07,10.24c.12.1.3.16.87.16h2.43c.58,0,.74-.06.88-.16s.39-.63.39-3.85-.23-3.7-.39-3.85-.29-.18-.88-.18h-2.43c-.58,0-.75.06-.87.18s-.4.6-.4,3.85S158.15,278.13,158.32,278.3Z" transform="translate(-108.62 -201.18)"/><path class="cls-1" d="M175.55,270.43v10.4h-3v-10.4h-3.89v-2.37h10.79v2.37Z" transform="translate(-108.62 -201.18)"/><path class="cls-1" d="M182.74,280.83V268.06h3v12.77Z" transform="translate(-108.62 -201.18)"/><path class="cls-1" d="M199.41,280.22a3,3,0,0,1-2.29.62h-3.9a3,3,0,0,1-2.3-.62c-.74-.69-1.26-1.86-1.26-5.77s.52-5.09,1.26-5.76a3,3,0,0,1,2.3-.62h3.9c1.28,0,1.84.18,2.29.63.68.63,1,1.6,1,4h-2.84c-.06-1.58-.22-1.93-.37-2.08s-.29-.18-.88-.18H194c-.58,0-.75.06-.87.18s-.41.6-.41,3.85.24,3.68.41,3.85.29.16.87.16h2.37c.58,0,.75-.06.88-.16s.31-.46.37-2.23h2.86C200.39,278.64,200.09,279.58,199.41,280.22Z" transform="translate(-108.62 -201.18)"/><path class="cls-1" d="M213.42,280.23a2.65,2.65,0,0,1-2,.6h-4.78a2.88,2.88,0,0,1-2.13-.56c-.53-.53-.73-1.31-.75-3.6h2.81c0,1.26.09,1.55.22,1.68s.29.16.82.16h2.71c.54,0,.76,0,.9-.16s.18-.51.18-1.28,0-.91-.21-1.08a1.56,1.56,0,0,0-.89-.21l-3.89-.4a2.89,2.89,0,0,1-1.81-.67c-.49-.51-.71-1.19-.71-2.92s.3-2.54.88-3.12a2.63,2.63,0,0,1,2-.6h4.42a2.88,2.88,0,0,1,2.13.55c.52.55.75,1.24.78,3.49h-2.81c0-1.15-.09-1.42-.21-1.55s-.28-.18-.79-.18h-2.52c-.47,0-.67,0-.78.15s-.16.5-.16,1.2,0,.91.18,1.05.33.15.89.23l3.92.4a2.68,2.68,0,0,1,1.77.66c.49.49.71,1.2.71,2.93S214,279.65,213.42,280.23Z" transform="translate(-108.62 -201.18)"/><path class="cls-1" d="M231,276.25c-.22-.18-.48-.26-1.24-.26H227v4.84h-3V268.06h7.52a2.87,2.87,0,0,1,2.15.59c.53.53.82,1.21.82,3,0,2.3-.65,3-2.13,3.23v0c1.31.27,1.95.64,2,2.5.05,1.51.12,2.68.2,3.37h-3a26,26,0,0,1-.24-3.18C231.3,276.67,231.17,276.46,231,276.25Zm-.81-2.46c.63,0,.81-.07.92-.16s.35-.53.35-1.57-.16-1.37-.35-1.53-.29-.14-.92-.14H227v3.41Z" transform="translate(-108.62 -201.18)"/><path class="cls-1" d="M245.75,277.66h-4.4l-.95,3.18h-3l4-12c.23-.69.37-.84,1-.84h2.46c.66,0,.81.16,1,.84l4,12h-3.18ZM242,275.43h3.08l-1.42-4.74h-.23Z" transform="translate(-108.62 -201.18)"/><path class="cls-1" d="M262.26,280.22c-.45.44-1,.62-2.29.62h-3.91a3,3,0,0,1-2.3-.62c-.73-.69-1.26-1.86-1.26-5.77s.53-5.09,1.26-5.76a3,3,0,0,1,2.3-.62H260c1.27,0,1.84.18,2.29.63.68.63,1,1.6,1,4h-2.84c-.07-1.58-.22-1.93-.37-2.08s-.29-.18-.88-.18h-2.37c-.58,0-.75.06-.87.18s-.41.6-.41,3.85.24,3.68.41,3.85.29.16.87.16h2.37c.59,0,.75-.06.88-.16s.3-.46.37-2.23h2.86C263.24,278.64,262.94,279.58,262.26,280.22Z" transform="translate(-108.62 -201.18)"/><path class="cls-1" d="M267.09,280.83V268.06h3v12.77Z" transform="translate(-108.62 -201.18)"/><path class="cls-1" d="M285.54,280.83h-2.41a1.26,1.26,0,0,1-1.31-.77l-4.4-7.88h-.18v8.65h-2.85V268.06h2.79a1.22,1.22,0,0,1,1.31.77l4,7.28h.19v-8h2.85Z" transform="translate(-108.62 -201.18)"/><path class="cls-1" d="M296.88,268.06c1.29,0,1.89.15,2.35.59.67.62,1,1.39,1,3.61H297.4c0-1.28-.23-1.53-.4-1.68s-.27-.18-.86-.18h-2.39c-.6,0-.74.06-.87.18s-.44.74-.44,3.87.25,3.71.44,3.89.27.16.87.16h2.45c.56,0,.73-.05.85-.16s.42-.66.42-1.88v-.37h-2.86V273.9h5.77v1.59c0,2.94-.48,4-1.18,4.7a3.07,3.07,0,0,1-2.31.64H293a3,3,0,0,1-2.31-.62c-.72-.69-1.25-1.86-1.25-5.77s.52-5.09,1.25-5.76a3,3,0,0,1,2.31-.62Z" transform="translate(-108.62 -201.18)"/></svg>